<svg xmlns="http://www.w3.org/2000/svg" xmlns:xlink="http://www.w3.org/1999/xlink" width="500" zoomAndPan="magnify" viewBox="0 0 375 374.999991" height="500" preserveAspectRatio="xMidYMid meet" version="1.0"><defs><g/></defs><rect x="-37.5" width="450" fill="#ffffff" y="-37.499999" height="449.999989" fill-opacity="1"/><rect x="-37.5" width="450" fill="#5e17eb" y="-37.499999" height="449.999989" fill-opacity="1"/><g fill="#ffde59" fill-opacity="1"><g transform="translate(105.614361, 168.419015)"><g><path d="M 8.578125 -39.96875 C 12.410156 -43.070312 17.488281 -44.625 23.8125 -44.625 C 30.144531 -44.625 35.226562 -43.0625 39.0625 -39.9375 C 42.894531 -36.820312 44.8125 -32.4375 44.8125 -26.78125 L 44.8125 -16.96875 C 44.8125 -12.019531 43.328125 -8.019531 40.359375 -4.96875 L 45.265625 2.140625 C 45.390625 2.390625 45.453125 2.648438 45.453125 2.921875 C 45.453125 3.191406 45.332031 3.453125 45.09375 3.703125 C 44.863281 3.953125 44.5625 4.078125 44.1875 4.078125 L 31.875 4.078125 C 30.820312 4.078125 29.941406 3.597656 29.234375 2.640625 L 27.46875 0.4375 C 26.25 0.5625 25.035156 0.625 23.828125 0.625 C 17.410156 0.625 12.304688 -0.867188 8.515625 -3.859375 C 4.722656 -6.859375 2.828125 -11.226562 2.828125 -16.96875 L 2.828125 -26.78125 C 2.828125 -32.476562 4.742188 -36.875 8.578125 -39.96875 Z M 20.421875 -12.875 C 21.265625 -12.039062 22.394531 -11.625 23.8125 -11.625 C 25.238281 -11.625 26.367188 -12.039062 27.203125 -12.875 C 28.046875 -13.71875 28.46875 -15 28.46875 -16.71875 L 28.46875 -27.28125 C 28.46875 -28.957031 28.046875 -30.222656 27.203125 -31.078125 C 26.367188 -31.941406 25.238281 -32.375 23.8125 -32.375 C 22.394531 -32.375 21.265625 -31.941406 20.421875 -31.078125 C 19.585938 -30.222656 19.171875 -28.957031 19.171875 -27.28125 L 19.171875 -16.71875 C 19.171875 -15 19.585938 -13.71875 20.421875 -12.875 Z M 20.421875 -12.875 "/></g></g></g><g fill="#ffde59" fill-opacity="1"><g transform="translate(153.953205, 168.419015)"><g><path d="M 30.171875 -44 L 42.5 -44 C 42.957031 -44 43.351562 -43.832031 43.6875 -43.5 C 44.019531 -43.164062 44.1875 -42.765625 44.1875 -42.296875 L 44.1875 -17.03125 C 44.1875 -11.164062 42.363281 -6.753906 38.71875 -3.796875 C 35.070312 -0.847656 30.113281 0.625 23.84375 0.625 C 17.582031 0.625 12.617188 -0.835938 8.953125 -3.765625 C 5.285156 -6.703125 3.453125 -11.125 3.453125 -17.03125 L 3.453125 -42.296875 C 3.453125 -42.765625 3.617188 -43.164062 3.953125 -43.5 C 4.296875 -43.832031 4.695312 -44 5.15625 -44 L 17.46875 -44 C 17.9375 -44 18.335938 -43.832031 18.671875 -43.5 C 19.003906 -43.164062 19.171875 -42.765625 19.171875 -42.296875 L 19.171875 -16.84375 C 19.171875 -13.613281 20.71875 -12 23.8125 -12 C 26.914062 -12 28.46875 -13.613281 28.46875 -16.84375 L 28.46875 -42.296875 C 28.46875 -42.765625 28.632812 -43.164062 28.96875 -43.5 C 29.3125 -43.832031 29.710938 -44 30.171875 -44 Z M 30.171875 -44 "/></g></g></g><g fill="#ffde59" fill-opacity="1"><g transform="translate(201.600598, 168.419015)"><g><path d="M 18.609375 0 L 5.78125 0 C 5.320312 0 4.921875 -0.164062 4.578125 -0.5 C 4.242188 -0.832031 4.078125 -1.234375 4.078125 -1.703125 L 4.078125 -42.296875 C 4.078125 -42.765625 4.242188 -43.164062 4.578125 -43.5 C 4.921875 -43.832031 5.320312 -44 5.78125 -44 L 18.609375 -44 C 19.066406 -44 19.460938 -43.832031 19.796875 -43.5 C 20.128906 -43.164062 20.296875 -42.765625 20.296875 -42.296875 L 20.296875 -1.703125 C 20.296875 -1.234375 20.128906 -0.832031 19.796875 -0.5 C 19.460938 -0.164062 19.066406 0 18.609375 0 Z M 18.609375 0 "/></g></g></g><g fill="#ffde59" fill-opacity="1"><g transform="translate(225.990027, 168.419015)"><g><path d="M 40.421875 -12.890625 C 40.878906 -12.890625 41.273438 -12.71875 41.609375 -12.375 C 41.941406 -12.039062 42.109375 -11.644531 42.109375 -11.1875 L 42.109375 -1.703125 C 42.109375 -1.234375 41.941406 -0.832031 41.609375 -0.5 C 41.273438 -0.164062 40.878906 0 40.421875 0 L 4.53125 0 C 4.0625 0 3.660156 -0.164062 3.328125 -0.5 C 2.992188 -0.832031 2.828125 -1.234375 2.828125 -1.703125 L 2.828125 -10.75 C 2.828125 -11.582031 3.140625 -12.316406 3.765625 -12.953125 L 21.375 -31.234375 L 4.84375 -31.234375 C 4.382812 -31.234375 3.984375 -31.398438 3.640625 -31.734375 C 3.304688 -32.078125 3.140625 -32.476562 3.140625 -32.9375 L 3.140625 -42.296875 C 3.140625 -42.765625 3.304688 -43.164062 3.640625 -43.5 C 3.984375 -43.832031 4.382812 -44 4.84375 -44 L 39.59375 -44 C 40.0625 -44 40.460938 -43.832031 40.796875 -43.5 C 41.128906 -43.164062 41.296875 -42.765625 41.296875 -42.296875 L 41.296875 -33.375 C 41.296875 -32.539062 41.023438 -31.847656 40.484375 -31.296875 L 23.828125 -12.890625 Z M 40.421875 -12.890625 "/></g></g></g><g fill="#ff914d" fill-opacity="1"><g transform="translate(105.614361, 165.192894)"><g><path d="M 8.578125 -39.96875 C 12.410156 -43.070312 17.488281 -44.625 23.8125 -44.625 C 30.144531 -44.625 35.226562 -43.0625 39.0625 -39.9375 C 42.894531 -36.820312 44.8125 -32.4375 44.8125 -26.78125 L 44.8125 -16.96875 C 44.8125 -12.019531 43.328125 -8.019531 40.359375 -4.96875 L 45.265625 2.140625 C 45.390625 2.390625 45.453125 2.648438 45.453125 2.921875 C 45.453125 3.191406 45.332031 3.453125 45.09375 3.703125 C 44.863281 3.953125 44.5625 4.078125 44.1875 4.078125 L 31.875 4.078125 C 30.820312 4.078125 29.941406 3.597656 29.234375 2.640625 L 27.46875 0.4375 C 26.25 0.5625 25.035156 0.625 23.828125 0.625 C 17.410156 0.625 12.304688 -0.867188 8.515625 -3.859375 C 4.722656 -6.859375 2.828125 -11.226562 2.828125 -16.96875 L 2.828125 -26.78125 C 2.828125 -32.476562 4.742188 -36.875 8.578125 -39.96875 Z M 20.421875 -12.875 C 21.265625 -12.039062 22.394531 -11.625 23.8125 -11.625 C 25.238281 -11.625 26.367188 -12.039062 27.203125 -12.875 C 28.046875 -13.71875 28.46875 -15 28.46875 -16.71875 L 28.46875 -27.28125 C 28.46875 -28.957031 28.046875 -30.222656 27.203125 -31.078125 C 26.367188 -31.941406 25.238281 -32.375 23.8125 -32.375 C 22.394531 -32.375 21.265625 -31.941406 20.421875 -31.078125 C 19.585938 -30.222656 19.171875 -28.957031 19.171875 -27.28125 L 19.171875 -16.71875 C 19.171875 -15 19.585938 -13.71875 20.421875 -12.875 Z M 20.421875 -12.875 "/></g></g></g><g fill="#ff914d" fill-opacity="1"><g transform="translate(153.953205, 165.192894)"><g><path d="M 30.171875 -44 L 42.5 -44 C 42.957031 -44 43.351562 -43.832031 43.6875 -43.5 C 44.019531 -43.164062 44.1875 -42.765625 44.1875 -42.296875 L 44.1875 -17.03125 C 44.1875 -11.164062 42.363281 -6.753906 38.71875 -3.796875 C 35.070312 -0.847656 30.113281 0.625 23.84375 0.625 C 17.582031 0.625 12.617188 -0.835938 8.953125 -3.765625 C 5.285156 -6.703125 3.453125 -11.125 3.453125 -17.03125 L 3.453125 -42.296875 C 3.453125 -42.765625 3.617188 -43.164062 3.953125 -43.5 C 4.296875 -43.832031 4.695312 -44 5.15625 -44 L 17.46875 -44 C 17.9375 -44 18.335938 -43.832031 18.671875 -43.5 C 19.003906 -43.164062 19.171875 -42.765625 19.171875 -42.296875 L 19.171875 -16.84375 C 19.171875 -13.613281 20.71875 -12 23.8125 -12 C 26.914062 -12 28.46875 -13.613281 28.46875 -16.84375 L 28.46875 -42.296875 C 28.46875 -42.765625 28.632812 -43.164062 28.96875 -43.5 C 29.3125 -43.832031 29.710938 -44 30.171875 -44 Z M 30.171875 -44 "/></g></g></g><g fill="#ff914d" fill-opacity="1"><g transform="translate(201.600598, 165.192894)"><g><path d="M 18.609375 0 L 5.78125 0 C 5.320312 0 4.921875 -0.164062 4.578125 -0.5 C 4.242188 -0.832031 4.078125 -1.234375 4.078125 -1.703125 L 4.078125 -42.296875 C 4.078125 -42.765625 4.242188 -43.164062 4.578125 -43.5 C 4.921875 -43.832031 5.320312 -44 5.78125 -44 L 18.609375 -44 C 19.066406 -44 19.460938 -43.832031 19.796875 -43.5 C 20.128906 -43.164062 20.296875 -42.765625 20.296875 -42.296875 L 20.296875 -1.703125 C 20.296875 -1.234375 20.128906 -0.832031 19.796875 -0.5 C 19.460938 -0.164062 19.066406 0 18.609375 0 Z M 18.609375 0 "/></g></g></g><g fill="#ff914d" fill-opacity="1"><g transform="translate(225.990027, 165.192894)"><g><path d="M 40.421875 -12.890625 C 40.878906 -12.890625 41.273438 -12.71875 41.609375 -12.375 C 41.941406 -12.039062 42.109375 -11.644531 42.109375 -11.1875 L 42.109375 -1.703125 C 42.109375 -1.234375 41.941406 -0.832031 41.609375 -0.5 C 41.273438 -0.164062 40.878906 0 40.421875 0 L 4.53125 0 C 4.0625 0 3.660156 -0.164062 3.328125 -0.5 C 2.992188 -0.832031 2.828125 -1.234375 2.828125 -1.703125 L 2.828125 -10.75 C 2.828125 -11.582031 3.140625 -12.316406 3.765625 -12.953125 L 21.375 -31.234375 L 4.84375 -31.234375 C 4.382812 -31.234375 3.984375 -31.398438 3.640625 -31.734375 C 3.304688 -32.078125 3.140625 -32.476562 3.140625 -32.9375 L 3.140625 -42.296875 C 3.140625 -42.765625 3.304688 -43.164062 3.640625 -43.5 C 3.984375 -43.832031 4.382812 -44 4.84375 -44 L 39.59375 -44 C 40.0625 -44 40.460938 -43.832031 40.796875 -43.5 C 41.128906 -43.164062 41.296875 -42.765625 41.296875 -42.296875 L 41.296875 -33.375 C 41.296875 -32.539062 41.023438 -31.847656 40.484375 -31.296875 L 23.828125 -12.890625 Z M 40.421875 -12.890625 "/></g></g></g><g fill="#ff5757" fill-opacity="1"><g transform="translate(105.614361, 160.477797)"><g><path d="M 8.578125 -39.96875 C 12.410156 -43.070312 17.488281 -44.625 23.8125 -44.625 C 30.144531 -44.625 35.226562 -43.0625 39.0625 -39.9375 C 42.894531 -36.820312 44.8125 -32.4375 44.8125 -26.78125 L 44.8125 -16.96875 C 44.8125 -12.019531 43.328125 -8.019531 40.359375 -4.96875 L 45.265625 2.140625 C 45.390625 2.390625 45.453125 2.648438 45.453125 2.921875 C 45.453125 3.191406 45.332031 3.453125 45.09375 3.703125 C 44.863281 3.953125 44.5625 4.078125 44.1875 4.078125 L 31.875 4.078125 C 30.820312 4.078125 29.941406 3.597656 29.234375 2.640625 L 27.46875 0.4375 C 26.25 0.5625 25.035156 0.625 23.828125 0.625 C 17.410156 0.625 12.304688 -0.867188 8.515625 -3.859375 C 4.722656 -6.859375 2.828125 -11.226562 2.828125 -16.96875 L 2.828125 -26.78125 C 2.828125 -32.476562 4.742188 -36.875 8.578125 -39.96875 Z M 20.421875 -12.875 C 21.265625 -12.039062 22.394531 -11.625 23.8125 -11.625 C 25.238281 -11.625 26.367188 -12.039062 27.203125 -12.875 C 28.046875 -13.71875 28.46875 -15 28.46875 -16.71875 L 28.46875 -27.28125 C 28.46875 -28.957031 28.046875 -30.222656 27.203125 -31.078125 C 26.367188 -31.941406 25.238281 -32.375 23.8125 -32.375 C 22.394531 -32.375 21.265625 -31.941406 20.421875 -31.078125 C 19.585938 -30.222656 19.171875 -28.957031 19.171875 -27.28125 L 19.171875 -16.71875 C 19.171875 -15 19.585938 -13.71875 20.421875 -12.875 Z M 20.421875 -12.875 "/></g></g></g><g fill="#ff5757" fill-opacity="1"><g transform="translate(153.953205, 160.477797)"><g><path d="M 30.171875 -44 L 42.5 -44 C 42.957031 -44 43.351562 -43.832031 43.6875 -43.5 C 44.019531 -43.164062 44.1875 -42.765625 44.1875 -42.296875 L 44.1875 -17.03125 C 44.1875 -11.164062 42.363281 -6.753906 38.71875 -3.796875 C 35.070312 -0.847656 30.113281 0.625 23.84375 0.625 C 17.582031 0.625 12.617188 -0.835938 8.953125 -3.765625 C 5.285156 -6.703125 3.453125 -11.125 3.453125 -17.03125 L 3.453125 -42.296875 C 3.453125 -42.765625 3.617188 -43.164062 3.953125 -43.5 C 4.296875 -43.832031 4.695312 -44 5.15625 -44 L 17.46875 -44 C 17.9375 -44 18.335938 -43.832031 18.671875 -43.5 C 19.003906 -43.164062 19.171875 -42.765625 19.171875 -42.296875 L 19.171875 -16.84375 C 19.171875 -13.613281 20.71875 -12 23.8125 -12 C 26.914062 -12 28.46875 -13.613281 28.46875 -16.84375 L 28.46875 -42.296875 C 28.46875 -42.765625 28.632812 -43.164062 28.96875 -43.5 C 29.3125 -43.832031 29.710938 -44 30.171875 -44 Z M 30.171875 -44 "/></g></g></g><g fill="#ff5757" fill-opacity="1"><g transform="translate(201.600598, 160.477797)"><g><path d="M 18.609375 0 L 5.78125 0 C 5.320312 0 4.921875 -0.164062 4.578125 -0.5 C 4.242188 -0.832031 4.078125 -1.234375 4.078125 -1.703125 L 4.078125 -42.296875 C 4.078125 -42.765625 4.242188 -43.164062 4.578125 -43.5 C 4.921875 -43.832031 5.320312 -44 5.78125 -44 L 18.609375 -44 C 19.066406 -44 19.460938 -43.832031 19.796875 -43.5 C 20.128906 -43.164062 20.296875 -42.765625 20.296875 -42.296875 L 20.296875 -1.703125 C 20.296875 -1.234375 20.128906 -0.832031 19.796875 -0.5 C 19.460938 -0.164062 19.066406 0 18.609375 0 Z M 18.609375 0 "/></g></g></g><g fill="#ff5757" fill-opacity="1"><g transform="translate(225.990027, 160.477797)"><g><path d="M 40.421875 -12.890625 C 40.878906 -12.890625 41.273438 -12.71875 41.609375 -12.375 C 41.941406 -12.039062 42.109375 -11.644531 42.109375 -11.1875 L 42.109375 -1.703125 C 42.109375 -1.234375 41.941406 -0.832031 41.609375 -0.5 C 41.273438 -0.164062 40.878906 0 40.421875 0 L 4.53125 0 C 4.0625 0 3.660156 -0.164062 3.328125 -0.5 C 2.992188 -0.832031 2.828125 -1.234375 2.828125 -1.703125 L 2.828125 -10.75 C 2.828125 -11.582031 3.140625 -12.316406 3.765625 -12.953125 L 21.375 -31.234375 L 4.84375 -31.234375 C 4.382812 -31.234375 3.984375 -31.398438 3.640625 -31.734375 C 3.304688 -32.078125 3.140625 -32.476562 3.140625 -32.9375 L 3.140625 -42.296875 C 3.140625 -42.765625 3.304688 -43.164062 3.640625 -43.5 C 3.984375 -43.832031 4.382812 -44 4.84375 -44 L 39.59375 -44 C 40.0625 -44 40.460938 -43.832031 40.796875 -43.5 C 41.128906 -43.164062 41.296875 -42.765625 41.296875 -42.296875 L 41.296875 -33.375 C 41.296875 -32.539062 41.023438 -31.847656 40.484375 -31.296875 L 23.828125 -12.890625 Z M 40.421875 -12.890625 "/></g></g></g><g fill="#cb6ce6" fill-opacity="1"><g transform="translate(105.614361, 157.996168)"><g><path d="M 8.578125 -39.96875 C 12.410156 -43.070312 17.488281 -44.625 23.8125 -44.625 C 30.144531 -44.625 35.226562 -43.0625 39.0625 -39.9375 C 42.894531 -36.820312 44.8125 -32.4375 44.8125 -26.78125 L 44.8125 -16.96875 C 44.8125 -12.019531 43.328125 -8.019531 40.359375 -4.96875 L 45.265625 2.140625 C 45.390625 2.390625 45.453125 2.648438 45.453125 2.921875 C 45.453125 3.191406 45.332031 3.453125 45.09375 3.703125 C 44.863281 3.953125 44.5625 4.078125 44.1875 4.078125 L 31.875 4.078125 C 30.820312 4.078125 29.941406 3.597656 29.234375 2.640625 L 27.46875 0.4375 C 26.25 0.5625 25.035156 0.625 23.828125 0.625 C 17.410156 0.625 12.304688 -0.867188 8.515625 -3.859375 C 4.722656 -6.859375 2.828125 -11.226562 2.828125 -16.96875 L 2.828125 -26.78125 C 2.828125 -32.476562 4.742188 -36.875 8.578125 -39.96875 Z M 20.421875 -12.875 C 21.265625 -12.039062 22.394531 -11.625 23.8125 -11.625 C 25.238281 -11.625 26.367188 -12.039062 27.203125 -12.875 C 28.046875 -13.71875 28.46875 -15 28.46875 -16.71875 L 28.46875 -27.28125 C 28.46875 -28.957031 28.046875 -30.222656 27.203125 -31.078125 C 26.367188 -31.941406 25.238281 -32.375 23.8125 -32.375 C 22.394531 -32.375 21.265625 -31.941406 20.421875 -31.078125 C 19.585938 -30.222656 19.171875 -28.957031 19.171875 -27.28125 L 19.171875 -16.71875 C 19.171875 -15 19.585938 -13.71875 20.421875 -12.875 Z M 20.421875 -12.875 "/></g></g></g><g fill="#cb6ce6" fill-opacity="1"><g transform="translate(153.953205, 157.996168)"><g><path d="M 30.171875 -44 L 42.5 -44 C 42.957031 -44 43.351562 -43.832031 43.6875 -43.5 C 44.019531 -43.164062 44.1875 -42.765625 44.1875 -42.296875 L 44.1875 -17.03125 C 44.1875 -11.164062 42.363281 -6.753906 38.71875 -3.796875 C 35.070312 -0.847656 30.113281 0.625 23.84375 0.625 C 17.582031 0.625 12.617188 -0.835938 8.953125 -3.765625 C 5.285156 -6.703125 3.453125 -11.125 3.453125 -17.03125 L 3.453125 -42.296875 C 3.453125 -42.765625 3.617188 -43.164062 3.953125 -43.5 C 4.296875 -43.832031 4.695312 -44 5.15625 -44 L 17.46875 -44 C 17.9375 -44 18.335938 -43.832031 18.671875 -43.5 C 19.003906 -43.164062 19.171875 -42.765625 19.171875 -42.296875 L 19.171875 -16.84375 C 19.171875 -13.613281 20.71875 -12 23.8125 -12 C 26.914062 -12 28.46875 -13.613281 28.46875 -16.84375 L 28.46875 -42.296875 C 28.46875 -42.765625 28.632812 -43.164062 28.96875 -43.5 C 29.3125 -43.832031 29.710938 -44 30.171875 -44 Z M 30.171875 -44 "/></g></g></g><g fill="#cb6ce6" fill-opacity="1"><g transform="translate(201.600598, 157.996168)"><g><path d="M 18.609375 0 L 5.78125 0 C 5.320312 0 4.921875 -0.164062 4.578125 -0.5 C 4.242188 -0.832031 4.078125 -1.234375 4.078125 -1.703125 L 4.078125 -42.296875 C 4.078125 -42.765625 4.242188 -43.164062 4.578125 -43.5 C 4.921875 -43.832031 5.320312 -44 5.78125 -44 L 18.609375 -44 C 19.066406 -44 19.460938 -43.832031 19.796875 -43.5 C 20.128906 -43.164062 20.296875 -42.765625 20.296875 -42.296875 L 20.296875 -1.703125 C 20.296875 -1.234375 20.128906 -0.832031 19.796875 -0.5 C 19.460938 -0.164062 19.066406 0 18.609375 0 Z M 18.609375 0 "/></g></g></g><g fill="#cb6ce6" fill-opacity="1"><g transform="translate(225.990027, 157.996168)"><g><path d="M 40.421875 -12.890625 C 40.878906 -12.890625 41.273438 -12.71875 41.609375 -12.375 C 41.941406 -12.039062 42.109375 -11.644531 42.109375 -11.1875 L 42.109375 -1.703125 C 42.109375 -1.234375 41.941406 -0.832031 41.609375 -0.5 C 41.273438 -0.164062 40.878906 0 40.421875 0 L 4.53125 0 C 4.0625 0 3.660156 -0.164062 3.328125 -0.5 C 2.992188 -0.832031 2.828125 -1.234375 2.828125 -1.703125 L 2.828125 -10.75 C 2.828125 -11.582031 3.140625 -12.316406 3.765625 -12.953125 L 21.375 -31.234375 L 4.84375 -31.234375 C 4.382812 -31.234375 3.984375 -31.398438 3.640625 -31.734375 C 3.304688 -32.078125 3.140625 -32.476562 3.140625 -32.9375 L 3.140625 -42.296875 C 3.140625 -42.765625 3.304688 -43.164062 3.640625 -43.5 C 3.984375 -43.832031 4.382812 -44 4.84375 -44 L 39.59375 -44 C 40.0625 -44 40.460938 -43.832031 40.796875 -43.5 C 41.128906 -43.164062 41.296875 -42.765625 41.296875 -42.296875 L 41.296875 -33.375 C 41.296875 -32.539062 41.023438 -31.847656 40.484375 -31.296875 L 23.828125 -12.890625 Z M 40.421875 -12.890625 "/></g></g></g><g fill="#5e17eb" fill-opacity="1"><g transform="translate(105.614361, 154.4866)"><g><path d="M 8.578125 -39.96875 C 12.410156 -43.070312 17.488281 -44.625 23.8125 -44.625 C 30.144531 -44.625 35.226562 -43.0625 39.0625 -39.9375 C 42.894531 -36.820312 44.8125 -32.4375 44.8125 -26.78125 L 44.8125 -16.96875 C 44.8125 -12.019531 43.328125 -8.019531 40.359375 -4.96875 L 45.265625 2.140625 C 45.390625 2.390625 45.453125 2.648438 45.453125 2.921875 C 45.453125 3.191406 45.332031 3.453125 45.09375 3.703125 C 44.863281 3.953125 44.5625 4.078125 44.1875 4.078125 L 31.875 4.078125 C 30.820312 4.078125 29.941406 3.597656 29.234375 2.640625 L 27.46875 0.4375 C 26.25 0.5625 25.035156 0.625 23.828125 0.625 C 17.410156 0.625 12.304688 -0.867188 8.515625 -3.859375 C 4.722656 -6.859375 2.828125 -11.226562 2.828125 -16.96875 L 2.828125 -26.78125 C 2.828125 -32.476562 4.742188 -36.875 8.578125 -39.96875 Z M 20.421875 -12.875 C 21.265625 -12.039062 22.394531 -11.625 23.8125 -11.625 C 25.238281 -11.625 26.367188 -12.039062 27.203125 -12.875 C 28.046875 -13.71875 28.46875 -15 28.46875 -16.71875 L 28.46875 -27.28125 C 28.46875 -28.957031 28.046875 -30.222656 27.203125 -31.078125 C 26.367188 -31.941406 25.238281 -32.375 23.8125 -32.375 C 22.394531 -32.375 21.265625 -31.941406 20.421875 -31.078125 C 19.585938 -30.222656 19.171875 -28.957031 19.171875 -27.28125 L 19.171875 -16.71875 C 19.171875 -15 19.585938 -13.71875 20.421875 -12.875 Z M 20.421875 -12.875 "/></g></g></g><g fill="#5e17eb" fill-opacity="1"><g transform="translate(153.953205, 154.4866)"><g><path d="M 30.171875 -44 L 42.5 -44 C 42.957031 -44 43.351562 -43.832031 43.6875 -43.5 C 44.019531 -43.164062 44.1875 -42.765625 44.1875 -42.296875 L 44.1875 -17.03125 C 44.1875 -11.164062 42.363281 -6.753906 38.71875 -3.796875 C 35.070312 -0.847656 30.113281 0.625 23.84375 0.625 C 17.582031 0.625 12.617188 -0.835938 8.953125 -3.765625 C 5.285156 -6.703125 3.453125 -11.125 3.453125 -17.03125 L 3.453125 -42.296875 C 3.453125 -42.765625 3.617188 -43.164062 3.953125 -43.5 C 4.296875 -43.832031 4.695312 -44 5.15625 -44 L 17.46875 -44 C 17.9375 -44 18.335938 -43.832031 18.671875 -43.5 C 19.003906 -43.164062 19.171875 -42.765625 19.171875 -42.296875 L 19.171875 -16.84375 C 19.171875 -13.613281 20.71875 -12 23.8125 -12 C 26.914062 -12 28.46875 -13.613281 28.46875 -16.84375 L 28.46875 -42.296875 C 28.46875 -42.765625 28.632812 -43.164062 28.96875 -43.5 C 29.3125 -43.832031 29.710938 -44 30.171875 -44 Z M 30.171875 -44 "/></g></g></g><g fill="#5e17eb" fill-opacity="1"><g transform="translate(201.600598, 154.4866)"><g><path d="M 18.609375 0 L 5.78125 0 C 5.320312 0 4.921875 -0.164062 4.578125 -0.5 C 4.242188 -0.832031 4.078125 -1.234375 4.078125 -1.703125 L 4.078125 -42.296875 C 4.078125 -42.765625 4.242188 -43.164062 4.578125 -43.5 C 4.921875 -43.832031 5.320312 -44 5.78125 -44 L 18.609375 -44 C 19.066406 -44 19.460938 -43.832031 19.796875 -43.5 C 20.128906 -43.164062 20.296875 -42.765625 20.296875 -42.296875 L 20.296875 -1.703125 C 20.296875 -1.234375 20.128906 -0.832031 19.796875 -0.5 C 19.460938 -0.164062 19.066406 0 18.609375 0 Z M 18.609375 0 "/></g></g></g><g fill="#5e17eb" fill-opacity="1"><g transform="translate(225.990027, 154.4866)"><g><path d="M 40.421875 -12.890625 C 40.878906 -12.890625 41.273438 -12.71875 41.609375 -12.375 C 41.941406 -12.039062 42.109375 -11.644531 42.109375 -11.1875 L 42.109375 -1.703125 C 42.109375 -1.234375 41.941406 -0.832031 41.609375 -0.5 C 41.273438 -0.164062 40.878906 0 40.421875 0 L 4.53125 0 C 4.0625 0 3.660156 -0.164062 3.328125 -0.5 C 2.992188 -0.832031 2.828125 -1.234375 2.828125 -1.703125 L 2.828125 -10.75 C 2.828125 -11.582031 3.140625 -12.316406 3.765625 -12.953125 L 21.375 -31.234375 L 4.84375 -31.234375 C 4.382812 -31.234375 3.984375 -31.398438 3.640625 -31.734375 C 3.304688 -32.078125 3.140625 -32.476562 3.140625 -32.9375 L 3.140625 -42.296875 C 3.140625 -42.765625 3.304688 -43.164062 3.640625 -43.5 C 3.984375 -43.832031 4.382812 -44 4.84375 -44 L 39.59375 -44 C 40.0625 -44 40.460938 -43.832031 40.796875 -43.5 C 41.128906 -43.164062 41.296875 -42.765625 41.296875 -42.296875 L 41.296875 -33.375 C 41.296875 -32.539062 41.023438 -31.847656 40.484375 -31.296875 L 23.828125 -12.890625 Z M 40.421875 -12.890625 "/></g></g></g><g fill="#ffffff" fill-opacity="1"><g transform="translate(104.828896, 149.386764)"><g><path d="M 8.578125 -39.96875 C 12.410156 -43.070312 17.488281 -44.625 23.8125 -44.625 C 30.144531 -44.625 35.226562 -43.0625 39.0625 -39.9375 C 42.894531 -36.820312 44.8125 -32.4375 44.8125 -26.78125 L 44.8125 -16.96875 C 44.8125 -12.019531 43.328125 -8.019531 40.359375 -4.96875 L 45.265625 2.140625 C 45.390625 2.390625 45.453125 2.648438 45.453125 2.921875 C 45.453125 3.191406 45.332031 3.453125 45.09375 3.703125 C 44.863281 3.953125 44.5625 4.078125 44.1875 4.078125 L 31.875 4.078125 C 30.820312 4.078125 29.941406 3.597656 29.234375 2.640625 L 27.46875 0.4375 C 26.25 0.5625 25.035156 0.625 23.828125 0.625 C 17.410156 0.625 12.304688 -0.867188 8.515625 -3.859375 C 4.722656 -6.859375 2.828125 -11.226562 2.828125 -16.96875 L 2.828125 -26.78125 C 2.828125 -32.476562 4.742188 -36.875 8.578125 -39.96875 Z M 20.421875 -12.875 C 21.265625 -12.039062 22.394531 -11.625 23.8125 -11.625 C 25.238281 -11.625 26.367188 -12.039062 27.203125 -12.875 C 28.046875 -13.71875 28.46875 -15 28.46875 -16.71875 L 28.46875 -27.28125 C 28.46875 -28.957031 28.046875 -30.222656 27.203125 -31.078125 C 26.367188 -31.941406 25.238281 -32.375 23.8125 -32.375 C 22.394531 -32.375 21.265625 -31.941406 20.421875 -31.078125 C 19.585938 -30.222656 19.171875 -28.957031 19.171875 -27.28125 L 19.171875 -16.71875 C 19.171875 -15 19.585938 -13.71875 20.421875 -12.875 Z M 20.421875 -12.875 "/></g></g></g><g fill="#ffffff" fill-opacity="1"><g transform="translate(153.16774, 149.386764)"><g><path d="M 30.171875 -44 L 42.5 -44 C 42.957031 -44 43.351562 -43.832031 43.6875 -43.5 C 44.019531 -43.164062 44.1875 -42.765625 44.1875 -42.296875 L 44.1875 -17.03125 C 44.1875 -11.164062 42.363281 -6.753906 38.71875 -3.796875 C 35.070312 -0.847656 30.113281 0.625 23.84375 0.625 C 17.582031 0.625 12.617188 -0.835938 8.953125 -3.765625 C 5.285156 -6.703125 3.453125 -11.125 3.453125 -17.03125 L 3.453125 -42.296875 C 3.453125 -42.765625 3.617188 -43.164062 3.953125 -43.5 C 4.296875 -43.832031 4.695312 -44 5.15625 -44 L 17.46875 -44 C 17.9375 -44 18.335938 -43.832031 18.671875 -43.5 C 19.003906 -43.164062 19.171875 -42.765625 19.171875 -42.296875 L 19.171875 -16.84375 C 19.171875 -13.613281 20.71875 -12 23.8125 -12 C 26.914062 -12 28.46875 -13.613281 28.46875 -16.84375 L 28.46875 -42.296875 C 28.46875 -42.765625 28.632812 -43.164062 28.96875 -43.5 C 29.3125 -43.832031 29.710938 -44 30.171875 -44 Z M 30.171875 -44 "/></g></g></g><g fill="#ffffff" fill-opacity="1"><g transform="translate(200.815133, 149.386764)"><g><path d="M 18.609375 0 L 5.78125 0 C 5.320312 0 4.921875 -0.164062 4.578125 -0.5 C 4.242188 -0.832031 4.078125 -1.234375 4.078125 -1.703125 L 4.078125 -42.296875 C 4.078125 -42.765625 4.242188 -43.164062 4.578125 -43.5 C 4.921875 -43.832031 5.320312 -44 5.78125 -44 L 18.609375 -44 C 19.066406 -44 19.460938 -43.832031 19.796875 -43.5 C 20.128906 -43.164062 20.296875 -42.765625 20.296875 -42.296875 L 20.296875 -1.703125 C 20.296875 -1.234375 20.128906 -0.832031 19.796875 -0.5 C 19.460938 -0.164062 19.066406 0 18.609375 0 Z M 18.609375 0 "/></g></g></g><g fill="#ffffff" fill-opacity="1"><g transform="translate(225.204562, 149.386764)"><g><path d="M 40.421875 -12.890625 C 40.878906 -12.890625 41.273438 -12.71875 41.609375 -12.375 C 41.941406 -12.039062 42.109375 -11.644531 42.109375 -11.1875 L 42.109375 -1.703125 C 42.109375 -1.234375 41.941406 -0.832031 41.609375 -0.5 C 41.273438 -0.164062 40.878906 0 40.421875 0 L 4.53125 0 C 4.0625 0 3.660156 -0.164062 3.328125 -0.5 C 2.992188 -0.832031 2.828125 -1.234375 2.828125 -1.703125 L 2.828125 -10.75 C 2.828125 -11.582031 3.140625 -12.316406 3.765625 -12.953125 L 21.375 -31.234375 L 4.84375 -31.234375 C 4.382812 -31.234375 3.984375 -31.398438 3.640625 -31.734375 C 3.304688 -32.078125 3.140625 -32.476562 3.140625 -32.9375 L 3.140625 -42.296875 C 3.140625 -42.765625 3.304688 -43.164062 3.640625 -43.5 C 3.984375 -43.832031 4.382812 -44 4.84375 -44 L 39.59375 -44 C 40.0625 -44 40.460938 -43.832031 40.796875 -43.5 C 41.128906 -43.164062 41.296875 -42.765625 41.296875 -42.296875 L 41.296875 -33.375 C 41.296875 -32.539062 41.023438 -31.847656 40.484375 -31.296875 L 23.828125 -12.890625 Z M 40.421875 -12.890625 "/></g></g></g><g fill="#ffde59" fill-opacity="1"><g transform="translate(65.627655, 244.421382)"><g><path d="M 9.1875 -42.828125 C 13.300781 -46.148438 18.742188 -47.8125 25.515625 -47.8125 C 32.296875 -47.8125 37.738281 -46.140625 41.84375 -42.796875 C 45.957031 -39.453125 48.015625 -34.75 48.015625 -28.6875 L 48.015625 -18.1875 C 48.015625 -12.882812 46.421875 -8.59375 43.234375 -5.3125 L 48.484375 2.296875 C 48.617188 2.554688 48.6875 2.832031 48.6875 3.125 C 48.6875 3.414062 48.5625 3.695312 48.3125 3.96875 C 48.070312 4.238281 47.75 4.375 47.34375 4.375 L 34.140625 4.375 C 33.015625 4.375 32.070312 3.859375 31.3125 2.828125 L 29.421875 0.46875 C 28.117188 0.601562 26.816406 0.671875 25.515625 0.671875 C 18.648438 0.671875 13.1875 -0.929688 9.125 -4.140625 C 5.0625 -7.347656 3.03125 -12.03125 3.03125 -18.1875 L 3.03125 -28.6875 C 3.03125 -34.789062 5.082031 -39.503906 9.1875 -42.828125 Z M 21.890625 -13.796875 C 22.785156 -12.898438 23.992188 -12.453125 25.515625 -12.453125 C 27.046875 -12.453125 28.257812 -12.898438 29.15625 -13.796875 C 30.050781 -14.703125 30.5 -16.070312 30.5 -17.90625 L 30.5 -29.234375 C 30.5 -31.023438 30.050781 -32.378906 29.15625 -33.296875 C 28.257812 -34.222656 27.046875 -34.6875 25.515625 -34.6875 C 23.992188 -34.6875 22.785156 -34.222656 21.890625 -33.296875 C 20.992188 -32.378906 20.546875 -31.023438 20.546875 -29.234375 L 20.546875 -17.90625 C 20.546875 -16.070312 20.992188 -14.703125 21.890625 -13.796875 Z M 21.890625 -13.796875 "/></g></g></g><g fill="#ffde59" fill-opacity="1"><g transform="translate(117.409009, 244.421382)"><g><path d="M 32.328125 -47.140625 L 45.53125 -47.140625 C 46.019531 -47.140625 46.441406 -46.957031 46.796875 -46.59375 C 47.160156 -46.238281 47.34375 -45.816406 47.34375 -45.328125 L 47.34375 -18.25 C 47.34375 -11.96875 45.390625 -7.242188 41.484375 -4.078125 C 37.578125 -0.910156 32.265625 0.671875 25.546875 0.671875 C 18.835938 0.671875 13.519531 -0.894531 9.59375 -4.03125 C 5.664062 -7.175781 3.703125 -11.914062 3.703125 -18.25 L 3.703125 -45.328125 C 3.703125 -45.816406 3.878906 -46.238281 4.234375 -46.59375 C 4.597656 -46.957031 5.023438 -47.140625 5.515625 -47.140625 L 18.71875 -47.140625 C 19.21875 -47.140625 19.644531 -46.957031 20 -46.59375 C 20.363281 -46.238281 20.546875 -45.816406 20.546875 -45.328125 L 20.546875 -18.046875 C 20.546875 -14.585938 22.203125 -12.859375 25.515625 -12.859375 C 28.835938 -12.859375 30.5 -14.585938 30.5 -18.046875 L 30.5 -45.328125 C 30.5 -45.816406 30.675781 -46.238281 31.03125 -46.59375 C 31.394531 -46.957031 31.828125 -47.140625 32.328125 -47.140625 Z M 32.328125 -47.140625 "/></g></g></g><g fill="#ffde59" fill-opacity="1"><g transform="translate(168.449666, 244.421382)"><g><path d="M 20.546875 -13.125 L 41.28125 -13.125 C 41.769531 -13.125 42.191406 -12.941406 42.546875 -12.578125 C 42.910156 -12.222656 43.09375 -11.800781 43.09375 -11.3125 L 43.09375 -1.8125 C 43.09375 -1.320312 42.910156 -0.894531 42.546875 -0.53125 C 42.191406 -0.175781 41.769531 0 41.28125 0 L 6.203125 0 C 5.703125 0 5.269531 -0.175781 4.90625 -0.53125 C 4.550781 -0.894531 4.375 -1.320312 4.375 -1.8125 L 4.375 -45.328125 C 4.375 -45.816406 4.550781 -46.238281 4.90625 -46.59375 C 5.269531 -46.957031 5.703125 -47.140625 6.203125 -47.140625 L 40.75 -47.140625 C 41.238281 -47.140625 41.660156 -46.957031 42.015625 -46.59375 C 42.378906 -46.238281 42.5625 -45.816406 42.5625 -45.328125 L 42.5625 -35.828125 C 42.5625 -35.335938 42.378906 -34.910156 42.015625 -34.546875 C 41.660156 -34.191406 41.238281 -34.015625 40.75 -34.015625 L 20.546875 -34.015625 L 20.546875 -29.765625 L 39.265625 -29.765625 C 39.753906 -29.765625 40.175781 -29.582031 40.53125 -29.21875 C 40.894531 -28.863281 41.078125 -28.441406 41.078125 -27.953125 L 41.078125 -19.1875 C 41.078125 -18.695312 40.894531 -18.269531 40.53125 -17.90625 C 40.175781 -17.550781 39.753906 -17.375 39.265625 -17.375 L 20.546875 -17.375 Z M 20.546875 -13.125 "/></g></g></g><g fill="#ffde59" fill-opacity="1"><g transform="translate(215.248159, 244.421382)"><g><path d="M 3.171875 -32.328125 C 3.171875 -36.898438 5.066406 -40.625 8.859375 -43.5 C 12.648438 -46.375 17.628906 -47.8125 23.796875 -47.8125 C 29.972656 -47.8125 35.023438 -46.304688 38.953125 -43.296875 C 42.878906 -40.296875 44.84375 -37.15625 44.84375 -33.875 C 44.84375 -33.46875 44.695312 -33.117188 44.40625 -32.828125 C 44.113281 -32.535156 43.789062 -32.390625 43.4375 -32.390625 L 29.96875 -32.390625 C 28.9375 -32.390625 27.992188 -32.769531 27.140625 -33.53125 C 26.285156 -34.300781 25.140625 -34.6875 23.703125 -34.6875 C 21.546875 -34.6875 20.46875 -34.054688 20.46875 -32.796875 C 20.46875 -32.117188 20.992188 -31.554688 22.046875 -31.109375 C 23.109375 -30.660156 25.078125 -30.257812 27.953125 -29.90625 C 34.640625 -29.050781 39.40625 -27.488281 42.25 -25.21875 C 45.101562 -22.945312 46.53125 -19.507812 46.53125 -14.90625 C 46.53125 -10.3125 44.429688 -6.566406 40.234375 -3.671875 C 36.035156 -0.773438 30.546875 0.671875 23.765625 0.671875 C 16.992188 0.671875 11.675781 -0.71875 7.8125 -3.5 C 3.945312 -6.28125 2.015625 -9.671875 2.015625 -13.671875 C 2.015625 -14.078125 2.160156 -14.425781 2.453125 -14.71875 C 2.742188 -15.007812 3.09375 -15.15625 3.5 -15.15625 L 16.296875 -15.15625 C 17.242188 -15.15625 18.285156 -14.703125 19.421875 -13.796875 C 20.566406 -12.898438 22.148438 -12.453125 24.171875 -12.453125 C 27.546875 -12.453125 29.234375 -13.082031 29.234375 -14.34375 C 29.234375 -15.15625 28.625 -15.769531 27.40625 -16.1875 C 26.195312 -16.613281 23.910156 -17.054688 20.546875 -17.515625 C 8.960938 -19.035156 3.171875 -23.972656 3.171875 -32.328125 Z M 3.171875 -32.328125 "/></g></g></g><g fill="#ffde59" fill-opacity="1"><g transform="translate(263.797381, 244.421382)"><g><path d="M 3.84375 -47.140625 L 43.296875 -47.140625 C 43.796875 -47.140625 44.222656 -46.957031 44.578125 -46.59375 C 44.941406 -46.238281 45.125 -45.816406 45.125 -45.328125 L 45.125 -34.484375 C 45.125 -33.984375 44.941406 -33.550781 44.578125 -33.1875 C 44.222656 -32.832031 43.796875 -32.65625 43.296875 -32.65625 L 32.125 -32.65625 L 32.125 -1.8125 C 32.125 -1.320312 31.941406 -0.894531 31.578125 -0.53125 C 31.222656 -0.175781 30.796875 0 30.296875 0 L 16.828125 0 C 16.335938 0 15.910156 -0.175781 15.546875 -0.53125 C 15.191406 -0.894531 15.015625 -1.320312 15.015625 -1.8125 L 15.015625 -32.65625 L 3.84375 -32.65625 C 3.34375 -32.65625 2.910156 -32.832031 2.546875 -33.1875 C 2.191406 -33.550781 2.015625 -33.984375 2.015625 -34.484375 L 2.015625 -45.328125 C 2.015625 -45.816406 2.191406 -46.238281 2.546875 -46.59375 C 2.910156 -46.957031 3.34375 -47.140625 3.84375 -47.140625 Z M 3.84375 -47.140625 "/></g></g></g><g fill="#ff914d" fill-opacity="1"><g transform="translate(65.627655, 239.706284)"><g><path d="M 9.1875 -42.828125 C 13.300781 -46.148438 18.742188 -47.8125 25.515625 -47.8125 C 32.296875 -47.8125 37.738281 -46.140625 41.84375 -42.796875 C 45.957031 -39.453125 48.015625 -34.75 48.015625 -28.6875 L 48.015625 -18.1875 C 48.015625 -12.882812 46.421875 -8.59375 43.234375 -5.3125 L 48.484375 2.296875 C 48.617188 2.554688 48.6875 2.832031 48.6875 3.125 C 48.6875 3.414062 48.5625 3.695312 48.3125 3.96875 C 48.070312 4.238281 47.75 4.375 47.34375 4.375 L 34.140625 4.375 C 33.015625 4.375 32.070312 3.859375 31.3125 2.828125 L 29.421875 0.46875 C 28.117188 0.601562 26.816406 0.671875 25.515625 0.671875 C 18.648438 0.671875 13.1875 -0.929688 9.125 -4.140625 C 5.0625 -7.347656 3.03125 -12.03125 3.03125 -18.1875 L 3.03125 -28.6875 C 3.03125 -34.789062 5.082031 -39.503906 9.1875 -42.828125 Z M 21.890625 -13.796875 C 22.785156 -12.898438 23.992188 -12.453125 25.515625 -12.453125 C 27.046875 -12.453125 28.257812 -12.898438 29.15625 -13.796875 C 30.050781 -14.703125 30.5 -16.070312 30.5 -17.90625 L 30.5 -29.234375 C 30.5 -31.023438 30.050781 -32.378906 29.15625 -33.296875 C 28.257812 -34.222656 27.046875 -34.6875 25.515625 -34.6875 C 23.992188 -34.6875 22.785156 -34.222656 21.890625 -33.296875 C 20.992188 -32.378906 20.546875 -31.023438 20.546875 -29.234375 L 20.546875 -17.90625 C 20.546875 -16.070312 20.992188 -14.703125 21.890625 -13.796875 Z M 21.890625 -13.796875 "/></g></g></g><g fill="#ff914d" fill-opacity="1"><g transform="translate(117.409009, 239.706284)"><g><path d="M 32.328125 -47.140625 L 45.53125 -47.140625 C 46.019531 -47.140625 46.441406 -46.957031 46.796875 -46.59375 C 47.160156 -46.238281 47.34375 -45.816406 47.34375 -45.328125 L 47.34375 -18.25 C 47.34375 -11.96875 45.390625 -7.242188 41.484375 -4.078125 C 37.578125 -0.910156 32.265625 0.671875 25.546875 0.671875 C 18.835938 0.671875 13.519531 -0.894531 9.59375 -4.03125 C 5.664062 -7.175781 3.703125 -11.914062 3.703125 -18.25 L 3.703125 -45.328125 C 3.703125 -45.816406 3.878906 -46.238281 4.234375 -46.59375 C 4.597656 -46.957031 5.023438 -47.140625 5.515625 -47.140625 L 18.71875 -47.140625 C 19.21875 -47.140625 19.644531 -46.957031 20 -46.59375 C 20.363281 -46.238281 20.546875 -45.816406 20.546875 -45.328125 L 20.546875 -18.046875 C 20.546875 -14.585938 22.203125 -12.859375 25.515625 -12.859375 C 28.835938 -12.859375 30.5 -14.585938 30.5 -18.046875 L 30.5 -45.328125 C 30.5 -45.816406 30.675781 -46.238281 31.03125 -46.59375 C 31.394531 -46.957031 31.828125 -47.140625 32.328125 -47.140625 Z M 32.328125 -47.140625 "/></g></g></g><g fill="#ff914d" fill-opacity="1"><g transform="translate(168.449666, 239.706284)"><g><path d="M 20.546875 -13.125 L 41.28125 -13.125 C 41.769531 -13.125 42.191406 -12.941406 42.546875 -12.578125 C 42.910156 -12.222656 43.09375 -11.800781 43.09375 -11.3125 L 43.09375 -1.8125 C 43.09375 -1.320312 42.910156 -0.894531 42.546875 -0.53125 C 42.191406 -0.175781 41.769531 0 41.28125 0 L 6.203125 0 C 5.703125 0 5.269531 -0.175781 4.90625 -0.53125 C 4.550781 -0.894531 4.375 -1.320312 4.375 -1.8125 L 4.375 -45.328125 C 4.375 -45.816406 4.550781 -46.238281 4.90625 -46.59375 C 5.269531 -46.957031 5.703125 -47.140625 6.203125 -47.140625 L 40.75 -47.140625 C 41.238281 -47.140625 41.660156 -46.957031 42.015625 -46.59375 C 42.378906 -46.238281 42.5625 -45.816406 42.5625 -45.328125 L 42.5625 -35.828125 C 42.5625 -35.335938 42.378906 -34.910156 42.015625 -34.546875 C 41.660156 -34.191406 41.238281 -34.015625 40.75 -34.015625 L 20.546875 -34.015625 L 20.546875 -29.765625 L 39.265625 -29.765625 C 39.753906 -29.765625 40.175781 -29.582031 40.53125 -29.21875 C 40.894531 -28.863281 41.078125 -28.441406 41.078125 -27.953125 L 41.078125 -19.1875 C 41.078125 -18.695312 40.894531 -18.269531 40.53125 -17.90625 C 40.175781 -17.550781 39.753906 -17.375 39.265625 -17.375 L 20.546875 -17.375 Z M 20.546875 -13.125 "/></g></g></g><g fill="#ff914d" fill-opacity="1"><g transform="translate(215.248159, 239.706284)"><g><path d="M 3.171875 -32.328125 C 3.171875 -36.898438 5.066406 -40.625 8.859375 -43.5 C 12.648438 -46.375 17.628906 -47.8125 23.796875 -47.8125 C 29.972656 -47.8125 35.023438 -46.304688 38.953125 -43.296875 C 42.878906 -40.296875 44.84375 -37.15625 44.84375 -33.875 C 44.84375 -33.46875 44.695312 -33.117188 44.40625 -32.828125 C 44.113281 -32.535156 43.789062 -32.390625 43.4375 -32.390625 L 29.96875 -32.390625 C 28.9375 -32.390625 27.992188 -32.769531 27.140625 -33.53125 C 26.285156 -34.300781 25.140625 -34.6875 23.703125 -34.6875 C 21.546875 -34.6875 20.46875 -34.054688 20.46875 -32.796875 C 20.46875 -32.117188 20.992188 -31.554688 22.046875 -31.109375 C 23.109375 -30.660156 25.078125 -30.257812 27.953125 -29.90625 C 34.640625 -29.050781 39.40625 -27.488281 42.25 -25.21875 C 45.101562 -22.945312 46.53125 -19.507812 46.53125 -14.90625 C 46.53125 -10.3125 44.429688 -6.566406 40.234375 -3.671875 C 36.035156 -0.773438 30.546875 0.671875 23.765625 0.671875 C 16.992188 0.671875 11.675781 -0.71875 7.8125 -3.5 C 3.945312 -6.28125 2.015625 -9.671875 2.015625 -13.671875 C 2.015625 -14.078125 2.160156 -14.425781 2.453125 -14.71875 C 2.742188 -15.007812 3.09375 -15.15625 3.5 -15.15625 L 16.296875 -15.15625 C 17.242188 -15.15625 18.285156 -14.703125 19.421875 -13.796875 C 20.566406 -12.898438 22.148438 -12.453125 24.171875 -12.453125 C 27.546875 -12.453125 29.234375 -13.082031 29.234375 -14.34375 C 29.234375 -15.15625 28.625 -15.769531 27.40625 -16.1875 C 26.195312 -16.613281 23.910156 -17.054688 20.546875 -17.515625 C 8.960938 -19.035156 3.171875 -23.972656 3.171875 -32.328125 Z M 3.171875 -32.328125 "/></g></g></g><g fill="#ff914d" fill-opacity="1"><g transform="translate(263.797381, 239.706284)"><g><path d="M 3.84375 -47.140625 L 43.296875 -47.140625 C 43.796875 -47.140625 44.222656 -46.957031 44.578125 -46.59375 C 44.941406 -46.238281 45.125 -45.816406 45.125 -45.328125 L 45.125 -34.484375 C 45.125 -33.984375 44.941406 -33.550781 44.578125 -33.1875 C 44.222656 -32.832031 43.796875 -32.65625 43.296875 -32.65625 L 32.125 -32.65625 L 32.125 -1.8125 C 32.125 -1.320312 31.941406 -0.894531 31.578125 -0.53125 C 31.222656 -0.175781 30.796875 0 30.296875 0 L 16.828125 0 C 16.335938 0 15.910156 -0.175781 15.546875 -0.53125 C 15.191406 -0.894531 15.015625 -1.320312 15.015625 -1.8125 L 15.015625 -32.65625 L 3.84375 -32.65625 C 3.34375 -32.65625 2.910156 -32.832031 2.546875 -33.1875 C 2.191406 -33.550781 2.015625 -33.984375 2.015625 -34.484375 L 2.015625 -45.328125 C 2.015625 -45.816406 2.191406 -46.238281 2.546875 -46.59375 C 2.910156 -46.957031 3.34375 -47.140625 3.84375 -47.140625 Z M 3.84375 -47.140625 "/></g></g></g><g fill="#ff5757" fill-opacity="1"><g transform="translate(65.627655, 237.224663)"><g><path d="M 9.1875 -42.828125 C 13.300781 -46.148438 18.742188 -47.8125 25.515625 -47.8125 C 32.296875 -47.8125 37.738281 -46.140625 41.84375 -42.796875 C 45.957031 -39.453125 48.015625 -34.75 48.015625 -28.6875 L 48.015625 -18.1875 C 48.015625 -12.882812 46.421875 -8.59375 43.234375 -5.3125 L 48.484375 2.296875 C 48.617188 2.554688 48.6875 2.832031 48.6875 3.125 C 48.6875 3.414062 48.5625 3.695312 48.3125 3.96875 C 48.070312 4.238281 47.75 4.375 47.34375 4.375 L 34.140625 4.375 C 33.015625 4.375 32.070312 3.859375 31.3125 2.828125 L 29.421875 0.46875 C 28.117188 0.601562 26.816406 0.671875 25.515625 0.671875 C 18.648438 0.671875 13.1875 -0.929688 9.125 -4.140625 C 5.0625 -7.347656 3.03125 -12.03125 3.03125 -18.1875 L 3.03125 -28.6875 C 3.03125 -34.789062 5.082031 -39.503906 9.1875 -42.828125 Z M 21.890625 -13.796875 C 22.785156 -12.898438 23.992188 -12.453125 25.515625 -12.453125 C 27.046875 -12.453125 28.257812 -12.898438 29.15625 -13.796875 C 30.050781 -14.703125 30.5 -16.070312 30.5 -17.90625 L 30.5 -29.234375 C 30.5 -31.023438 30.050781 -32.378906 29.15625 -33.296875 C 28.257812 -34.222656 27.046875 -34.6875 25.515625 -34.6875 C 23.992188 -34.6875 22.785156 -34.222656 21.890625 -33.296875 C 20.992188 -32.378906 20.546875 -31.023438 20.546875 -29.234375 L 20.546875 -17.90625 C 20.546875 -16.070312 20.992188 -14.703125 21.890625 -13.796875 Z M 21.890625 -13.796875 "/></g></g></g><g fill="#ff5757" fill-opacity="1"><g transform="translate(117.409009, 237.224663)"><g><path d="M 32.328125 -47.140625 L 45.53125 -47.140625 C 46.019531 -47.140625 46.441406 -46.957031 46.796875 -46.59375 C 47.160156 -46.238281 47.34375 -45.816406 47.34375 -45.328125 L 47.34375 -18.25 C 47.34375 -11.96875 45.390625 -7.242188 41.484375 -4.078125 C 37.578125 -0.910156 32.265625 0.671875 25.546875 0.671875 C 18.835938 0.671875 13.519531 -0.894531 9.59375 -4.03125 C 5.664062 -7.175781 3.703125 -11.914062 3.703125 -18.25 L 3.703125 -45.328125 C 3.703125 -45.816406 3.878906 -46.238281 4.234375 -46.59375 C 4.597656 -46.957031 5.023438 -47.140625 5.515625 -47.140625 L 18.71875 -47.140625 C 19.21875 -47.140625 19.644531 -46.957031 20 -46.59375 C 20.363281 -46.238281 20.546875 -45.816406 20.546875 -45.328125 L 20.546875 -18.046875 C 20.546875 -14.585938 22.203125 -12.859375 25.515625 -12.859375 C 28.835938 -12.859375 30.5 -14.585938 30.5 -18.046875 L 30.5 -45.328125 C 30.5 -45.816406 30.675781 -46.238281 31.03125 -46.59375 C 31.394531 -46.957031 31.828125 -47.140625 32.328125 -47.140625 Z M 32.328125 -47.140625 "/></g></g></g><g fill="#ff5757" fill-opacity="1"><g transform="translate(168.449666, 237.224663)"><g><path d="M 20.546875 -13.125 L 41.28125 -13.125 C 41.769531 -13.125 42.191406 -12.941406 42.546875 -12.578125 C 42.910156 -12.222656 43.09375 -11.800781 43.09375 -11.3125 L 43.09375 -1.8125 C 43.09375 -1.320312 42.910156 -0.894531 42.546875 -0.53125 C 42.191406 -0.175781 41.769531 0 41.28125 0 L 6.203125 0 C 5.703125 0 5.269531 -0.175781 4.90625 -0.53125 C 4.550781 -0.894531 4.375 -1.320312 4.375 -1.8125 L 4.375 -45.328125 C 4.375 -45.816406 4.550781 -46.238281 4.90625 -46.59375 C 5.269531 -46.957031 5.703125 -47.140625 6.203125 -47.140625 L 40.75 -47.140625 C 41.238281 -47.140625 41.660156 -46.957031 42.015625 -46.59375 C 42.378906 -46.238281 42.5625 -45.816406 42.5625 -45.328125 L 42.5625 -35.828125 C 42.5625 -35.335938 42.378906 -34.910156 42.015625 -34.546875 C 41.660156 -34.191406 41.238281 -34.015625 40.75 -34.015625 L 20.546875 -34.015625 L 20.546875 -29.765625 L 39.265625 -29.765625 C 39.753906 -29.765625 40.175781 -29.582031 40.53125 -29.21875 C 40.894531 -28.863281 41.078125 -28.441406 41.078125 -27.953125 L 41.078125 -19.1875 C 41.078125 -18.695312 40.894531 -18.269531 40.53125 -17.90625 C 40.175781 -17.550781 39.753906 -17.375 39.265625 -17.375 L 20.546875 -17.375 Z M 20.546875 -13.125 "/></g></g></g><g fill="#ff5757" fill-opacity="1"><g transform="translate(215.248159, 237.224663)"><g><path d="M 3.171875 -32.328125 C 3.171875 -36.898438 5.066406 -40.625 8.859375 -43.5 C 12.648438 -46.375 17.628906 -47.8125 23.796875 -47.8125 C 29.972656 -47.8125 35.023438 -46.304688 38.953125 -43.296875 C 42.878906 -40.296875 44.84375 -37.15625 44.84375 -33.875 C 44.84375 -33.46875 44.695312 -33.117188 44.40625 -32.828125 C 44.113281 -32.535156 43.789062 -32.390625 43.4375 -32.390625 L 29.96875 -32.390625 C 28.9375 -32.390625 27.992188 -32.769531 27.140625 -33.53125 C 26.285156 -34.300781 25.140625 -34.6875 23.703125 -34.6875 C 21.546875 -34.6875 20.46875 -34.054688 20.46875 -32.796875 C 20.46875 -32.117188 20.992188 -31.554688 22.046875 -31.109375 C 23.109375 -30.660156 25.078125 -30.257812 27.953125 -29.90625 C 34.640625 -29.050781 39.40625 -27.488281 42.25 -25.21875 C 45.101562 -22.945312 46.53125 -19.507812 46.53125 -14.90625 C 46.53125 -10.3125 44.429688 -6.566406 40.234375 -3.671875 C 36.035156 -0.773438 30.546875 0.671875 23.765625 0.671875 C 16.992188 0.671875 11.675781 -0.71875 7.8125 -3.5 C 3.945312 -6.28125 2.015625 -9.671875 2.015625 -13.671875 C 2.015625 -14.078125 2.160156 -14.425781 2.453125 -14.71875 C 2.742188 -15.007812 3.09375 -15.15625 3.5 -15.15625 L 16.296875 -15.15625 C 17.242188 -15.15625 18.285156 -14.703125 19.421875 -13.796875 C 20.566406 -12.898438 22.148438 -12.453125 24.171875 -12.453125 C 27.546875 -12.453125 29.234375 -13.082031 29.234375 -14.34375 C 29.234375 -15.15625 28.625 -15.769531 27.40625 -16.1875 C 26.195312 -16.613281 23.910156 -17.054688 20.546875 -17.515625 C 8.960938 -19.035156 3.171875 -23.972656 3.171875 -32.328125 Z M 3.171875 -32.328125 "/></g></g></g><g fill="#ff5757" fill-opacity="1"><g transform="translate(263.797381, 237.224663)"><g><path d="M 3.84375 -47.140625 L 43.296875 -47.140625 C 43.796875 -47.140625 44.222656 -46.957031 44.578125 -46.59375 C 44.941406 -46.238281 45.125 -45.816406 45.125 -45.328125 L 45.125 -34.484375 C 45.125 -33.984375 44.941406 -33.550781 44.578125 -33.1875 C 44.222656 -32.832031 43.796875 -32.65625 43.296875 -32.65625 L 32.125 -32.65625 L 32.125 -1.8125 C 32.125 -1.320312 31.941406 -0.894531 31.578125 -0.53125 C 31.222656 -0.175781 30.796875 0 30.296875 0 L 16.828125 0 C 16.335938 0 15.910156 -0.175781 15.546875 -0.53125 C 15.191406 -0.894531 15.015625 -1.320312 15.015625 -1.8125 L 15.015625 -32.65625 L 3.84375 -32.65625 C 3.34375 -32.65625 2.910156 -32.832031 2.546875 -33.1875 C 2.191406 -33.550781 2.015625 -33.984375 2.015625 -34.484375 L 2.015625 -45.328125 C 2.015625 -45.816406 2.191406 -46.238281 2.546875 -46.59375 C 2.910156 -46.957031 3.34375 -47.140625 3.84375 -47.140625 Z M 3.84375 -47.140625 "/></g></g></g><g fill="#cb6ce6" fill-opacity="1"><g transform="translate(65.627655, 233.715088)"><g><path d="M 9.1875 -42.828125 C 13.300781 -46.148438 18.742188 -47.8125 25.515625 -47.8125 C 32.296875 -47.8125 37.738281 -46.140625 41.84375 -42.796875 C 45.957031 -39.453125 48.015625 -34.75 48.015625 -28.6875 L 48.015625 -18.1875 C 48.015625 -12.882812 46.421875 -8.59375 43.234375 -5.3125 L 48.484375 2.296875 C 48.617188 2.554688 48.6875 2.832031 48.6875 3.125 C 48.6875 3.414062 48.5625 3.695312 48.3125 3.96875 C 48.070312 4.238281 47.75 4.375 47.34375 4.375 L 34.140625 4.375 C 33.015625 4.375 32.070312 3.859375 31.3125 2.828125 L 29.421875 0.46875 C 28.117188 0.601562 26.816406 0.671875 25.515625 0.671875 C 18.648438 0.671875 13.1875 -0.929688 9.125 -4.140625 C 5.0625 -7.347656 3.03125 -12.03125 3.03125 -18.1875 L 3.03125 -28.6875 C 3.03125 -34.789062 5.082031 -39.503906 9.1875 -42.828125 Z M 21.890625 -13.796875 C 22.785156 -12.898438 23.992188 -12.453125 25.515625 -12.453125 C 27.046875 -12.453125 28.257812 -12.898438 29.15625 -13.796875 C 30.050781 -14.703125 30.5 -16.070312 30.5 -17.90625 L 30.5 -29.234375 C 30.5 -31.023438 30.050781 -32.378906 29.15625 -33.296875 C 28.257812 -34.222656 27.046875 -34.6875 25.515625 -34.6875 C 23.992188 -34.6875 22.785156 -34.222656 21.890625 -33.296875 C 20.992188 -32.378906 20.546875 -31.023438 20.546875 -29.234375 L 20.546875 -17.90625 C 20.546875 -16.070312 20.992188 -14.703125 21.890625 -13.796875 Z M 21.890625 -13.796875 "/></g></g></g><g fill="#cb6ce6" fill-opacity="1"><g transform="translate(117.409009, 233.715088)"><g><path d="M 32.328125 -47.140625 L 45.53125 -47.140625 C 46.019531 -47.140625 46.441406 -46.957031 46.796875 -46.59375 C 47.160156 -46.238281 47.34375 -45.816406 47.34375 -45.328125 L 47.34375 -18.25 C 47.34375 -11.96875 45.390625 -7.242188 41.484375 -4.078125 C 37.578125 -0.910156 32.265625 0.671875 25.546875 0.671875 C 18.835938 0.671875 13.519531 -0.894531 9.59375 -4.03125 C 5.664062 -7.175781 3.703125 -11.914062 3.703125 -18.25 L 3.703125 -45.328125 C 3.703125 -45.816406 3.878906 -46.238281 4.234375 -46.59375 C 4.597656 -46.957031 5.023438 -47.140625 5.515625 -47.140625 L 18.71875 -47.140625 C 19.21875 -47.140625 19.644531 -46.957031 20 -46.59375 C 20.363281 -46.238281 20.546875 -45.816406 20.546875 -45.328125 L 20.546875 -18.046875 C 20.546875 -14.585938 22.203125 -12.859375 25.515625 -12.859375 C 28.835938 -12.859375 30.5 -14.585938 30.5 -18.046875 L 30.5 -45.328125 C 30.5 -45.816406 30.675781 -46.238281 31.03125 -46.59375 C 31.394531 -46.957031 31.828125 -47.140625 32.328125 -47.140625 Z M 32.328125 -47.140625 "/></g></g></g><g fill="#cb6ce6" fill-opacity="1"><g transform="translate(168.449666, 233.715088)"><g><path d="M 20.546875 -13.125 L 41.28125 -13.125 C 41.769531 -13.125 42.191406 -12.941406 42.546875 -12.578125 C 42.910156 -12.222656 43.09375 -11.800781 43.09375 -11.3125 L 43.09375 -1.8125 C 43.09375 -1.320312 42.910156 -0.894531 42.546875 -0.53125 C 42.191406 -0.175781 41.769531 0 41.28125 0 L 6.203125 0 C 5.703125 0 5.269531 -0.175781 4.90625 -0.53125 C 4.550781 -0.894531 4.375 -1.320312 4.375 -1.8125 L 4.375 -45.328125 C 4.375 -45.816406 4.550781 -46.238281 4.90625 -46.59375 C 5.269531 -46.957031 5.703125 -47.140625 6.203125 -47.140625 L 40.75 -47.140625 C 41.238281 -47.140625 41.660156 -46.957031 42.015625 -46.59375 C 42.378906 -46.238281 42.5625 -45.816406 42.5625 -45.328125 L 42.5625 -35.828125 C 42.5625 -35.335938 42.378906 -34.910156 42.015625 -34.546875 C 41.660156 -34.191406 41.238281 -34.015625 40.75 -34.015625 L 20.546875 -34.015625 L 20.546875 -29.765625 L 39.265625 -29.765625 C 39.753906 -29.765625 40.175781 -29.582031 40.53125 -29.21875 C 40.894531 -28.863281 41.078125 -28.441406 41.078125 -27.953125 L 41.078125 -19.1875 C 41.078125 -18.695312 40.894531 -18.269531 40.53125 -17.90625 C 40.175781 -17.550781 39.753906 -17.375 39.265625 -17.375 L 20.546875 -17.375 Z M 20.546875 -13.125 "/></g></g></g><g fill="#cb6ce6" fill-opacity="1"><g transform="translate(215.248159, 233.715088)"><g><path d="M 3.171875 -32.328125 C 3.171875 -36.898438 5.066406 -40.625 8.859375 -43.5 C 12.648438 -46.375 17.628906 -47.8125 23.796875 -47.8125 C 29.972656 -47.8125 35.023438 -46.304688 38.953125 -43.296875 C 42.878906 -40.296875 44.84375 -37.15625 44.84375 -33.875 C 44.84375 -33.46875 44.695312 -33.117188 44.40625 -32.828125 C 44.113281 -32.535156 43.789062 -32.390625 43.4375 -32.390625 L 29.96875 -32.390625 C 28.9375 -32.390625 27.992188 -32.769531 27.140625 -33.53125 C 26.285156 -34.300781 25.140625 -34.6875 23.703125 -34.6875 C 21.546875 -34.6875 20.46875 -34.054688 20.46875 -32.796875 C 20.46875 -32.117188 20.992188 -31.554688 22.046875 -31.109375 C 23.109375 -30.660156 25.078125 -30.257812 27.953125 -29.90625 C 34.640625 -29.050781 39.40625 -27.488281 42.25 -25.21875 C 45.101562 -22.945312 46.53125 -19.507812 46.53125 -14.90625 C 46.53125 -10.3125 44.429688 -6.566406 40.234375 -3.671875 C 36.035156 -0.773438 30.546875 0.671875 23.765625 0.671875 C 16.992188 0.671875 11.675781 -0.71875 7.8125 -3.5 C 3.945312 -6.28125 2.015625 -9.671875 2.015625 -13.671875 C 2.015625 -14.078125 2.160156 -14.425781 2.453125 -14.71875 C 2.742188 -15.007812 3.09375 -15.15625 3.5 -15.15625 L 16.296875 -15.15625 C 17.242188 -15.15625 18.285156 -14.703125 19.421875 -13.796875 C 20.566406 -12.898438 22.148438 -12.453125 24.171875 -12.453125 C 27.546875 -12.453125 29.234375 -13.082031 29.234375 -14.34375 C 29.234375 -15.15625 28.625 -15.769531 27.40625 -16.1875 C 26.195312 -16.613281 23.910156 -17.054688 20.546875 -17.515625 C 8.960938 -19.035156 3.171875 -23.972656 3.171875 -32.328125 Z M 3.171875 -32.328125 "/></g></g></g><g fill="#cb6ce6" fill-opacity="1"><g transform="translate(263.797381, 233.715088)"><g><path d="M 3.84375 -47.140625 L 43.296875 -47.140625 C 43.796875 -47.140625 44.222656 -46.957031 44.578125 -46.59375 C 44.941406 -46.238281 45.125 -45.816406 45.125 -45.328125 L 45.125 -34.484375 C 45.125 -33.984375 44.941406 -33.550781 44.578125 -33.1875 C 44.222656 -32.832031 43.796875 -32.65625 43.296875 -32.65625 L 32.125 -32.65625 L 32.125 -1.8125 C 32.125 -1.320312 31.941406 -0.894531 31.578125 -0.53125 C 31.222656 -0.175781 30.796875 0 30.296875 0 L 16.828125 0 C 16.335938 0 15.910156 -0.175781 15.546875 -0.53125 C 15.191406 -0.894531 15.015625 -1.320312 15.015625 -1.8125 L 15.015625 -32.65625 L 3.84375 -32.65625 C 3.34375 -32.65625 2.910156 -32.832031 2.546875 -33.1875 C 2.191406 -33.550781 2.015625 -33.984375 2.015625 -34.484375 L 2.015625 -45.328125 C 2.015625 -45.816406 2.191406 -46.238281 2.546875 -46.59375 C 2.910156 -46.957031 3.34375 -47.140625 3.84375 -47.140625 Z M 3.84375 -47.140625 "/></g></g></g><g fill="#5e17eb" fill-opacity="1"><g transform="translate(65.627655, 228.615249)"><g><path d="M 9.1875 -42.828125 C 13.300781 -46.148438 18.742188 -47.8125 25.515625 -47.8125 C 32.296875 -47.8125 37.738281 -46.140625 41.84375 -42.796875 C 45.957031 -39.453125 48.015625 -34.75 48.015625 -28.6875 L 48.015625 -18.1875 C 48.015625 -12.882812 46.421875 -8.59375 43.234375 -5.3125 L 48.484375 2.296875 C 48.617188 2.554688 48.6875 2.832031 48.6875 3.125 C 48.6875 3.414062 48.5625 3.695312 48.3125 3.96875 C 48.070312 4.238281 47.75 4.375 47.34375 4.375 L 34.140625 4.375 C 33.015625 4.375 32.070312 3.859375 31.3125 2.828125 L 29.421875 0.46875 C 28.117188 0.601562 26.816406 0.671875 25.515625 0.671875 C 18.648438 0.671875 13.1875 -0.929688 9.125 -4.140625 C 5.0625 -7.347656 3.03125 -12.03125 3.03125 -18.1875 L 3.03125 -28.6875 C 3.03125 -34.789062 5.082031 -39.503906 9.1875 -42.828125 Z M 21.890625 -13.796875 C 22.785156 -12.898438 23.992188 -12.453125 25.515625 -12.453125 C 27.046875 -12.453125 28.257812 -12.898438 29.15625 -13.796875 C 30.050781 -14.703125 30.5 -16.070312 30.5 -17.90625 L 30.5 -29.234375 C 30.5 -31.023438 30.050781 -32.378906 29.15625 -33.296875 C 28.257812 -34.222656 27.046875 -34.6875 25.515625 -34.6875 C 23.992188 -34.6875 22.785156 -34.222656 21.890625 -33.296875 C 20.992188 -32.378906 20.546875 -31.023438 20.546875 -29.234375 L 20.546875 -17.90625 C 20.546875 -16.070312 20.992188 -14.703125 21.890625 -13.796875 Z M 21.890625 -13.796875 "/></g></g></g><g fill="#5e17eb" fill-opacity="1"><g transform="translate(117.409009, 228.615249)"><g><path d="M 32.328125 -47.140625 L 45.53125 -47.140625 C 46.019531 -47.140625 46.441406 -46.957031 46.796875 -46.59375 C 47.160156 -46.238281 47.34375 -45.816406 47.34375 -45.328125 L 47.34375 -18.25 C 47.34375 -11.96875 45.390625 -7.242188 41.484375 -4.078125 C 37.578125 -0.910156 32.265625 0.671875 25.546875 0.671875 C 18.835938 0.671875 13.519531 -0.894531 9.59375 -4.03125 C 5.664062 -7.175781 3.703125 -11.914062 3.703125 -18.25 L 3.703125 -45.328125 C 3.703125 -45.816406 3.878906 -46.238281 4.234375 -46.59375 C 4.597656 -46.957031 5.023438 -47.140625 5.515625 -47.140625 L 18.71875 -47.140625 C 19.21875 -47.140625 19.644531 -46.957031 20 -46.59375 C 20.363281 -46.238281 20.546875 -45.816406 20.546875 -45.328125 L 20.546875 -18.046875 C 20.546875 -14.585938 22.203125 -12.859375 25.515625 -12.859375 C 28.835938 -12.859375 30.5 -14.585938 30.5 -18.046875 L 30.5 -45.328125 C 30.5 -45.816406 30.675781 -46.238281 31.03125 -46.59375 C 31.394531 -46.957031 31.828125 -47.140625 32.328125 -47.140625 Z M 32.328125 -47.140625 "/></g></g></g><g fill="#5e17eb" fill-opacity="1"><g transform="translate(168.449666, 228.615249)"><g><path d="M 20.546875 -13.125 L 41.28125 -13.125 C 41.769531 -13.125 42.191406 -12.941406 42.546875 -12.578125 C 42.910156 -12.222656 43.09375 -11.800781 43.09375 -11.3125 L 43.09375 -1.8125 C 43.09375 -1.320312 42.910156 -0.894531 42.546875 -0.53125 C 42.191406 -0.175781 41.769531 0 41.28125 0 L 6.203125 0 C 5.703125 0 5.269531 -0.175781 4.90625 -0.53125 C 4.550781 -0.894531 4.375 -1.320312 4.375 -1.8125 L 4.375 -45.328125 C 4.375 -45.816406 4.550781 -46.238281 4.90625 -46.59375 C 5.269531 -46.957031 5.703125 -47.140625 6.203125 -47.140625 L 40.75 -47.140625 C 41.238281 -47.140625 41.660156 -46.957031 42.015625 -46.59375 C 42.378906 -46.238281 42.5625 -45.816406 42.5625 -45.328125 L 42.5625 -35.828125 C 42.5625 -35.335938 42.378906 -34.910156 42.015625 -34.546875 C 41.660156 -34.191406 41.238281 -34.015625 40.75 -34.015625 L 20.546875 -34.015625 L 20.546875 -29.765625 L 39.265625 -29.765625 C 39.753906 -29.765625 40.175781 -29.582031 40.53125 -29.21875 C 40.894531 -28.863281 41.078125 -28.441406 41.078125 -27.953125 L 41.078125 -19.1875 C 41.078125 -18.695312 40.894531 -18.269531 40.53125 -17.90625 C 40.175781 -17.550781 39.753906 -17.375 39.265625 -17.375 L 20.546875 -17.375 Z M 20.546875 -13.125 "/></g></g></g><g fill="#5e17eb" fill-opacity="1"><g transform="translate(215.248159, 228.615249)"><g><path d="M 3.171875 -32.328125 C 3.171875 -36.898438 5.066406 -40.625 8.859375 -43.5 C 12.648438 -46.375 17.628906 -47.8125 23.796875 -47.8125 C 29.972656 -47.8125 35.023438 -46.304688 38.953125 -43.296875 C 42.878906 -40.296875 44.84375 -37.15625 44.84375 -33.875 C 44.84375 -33.46875 44.695312 -33.117188 44.40625 -32.828125 C 44.113281 -32.535156 43.789062 -32.390625 43.4375 -32.390625 L 29.96875 -32.390625 C 28.9375 -32.390625 27.992188 -32.769531 27.140625 -33.53125 C 26.285156 -34.300781 25.140625 -34.6875 23.703125 -34.6875 C 21.546875 -34.6875 20.46875 -34.054688 20.46875 -32.796875 C 20.46875 -32.117188 20.992188 -31.554688 22.046875 -31.109375 C 23.109375 -30.660156 25.078125 -30.257812 27.953125 -29.90625 C 34.640625 -29.050781 39.40625 -27.488281 42.25 -25.21875 C 45.101562 -22.945312 46.53125 -19.507812 46.53125 -14.90625 C 46.53125 -10.3125 44.429688 -6.566406 40.234375 -3.671875 C 36.035156 -0.773438 30.546875 0.671875 23.765625 0.671875 C 16.992188 0.671875 11.675781 -0.71875 7.8125 -3.5 C 3.945312 -6.28125 2.015625 -9.671875 2.015625 -13.671875 C 2.015625 -14.078125 2.160156 -14.425781 2.453125 -14.71875 C 2.742188 -15.007812 3.09375 -15.15625 3.5 -15.15625 L 16.296875 -15.15625 C 17.242188 -15.15625 18.285156 -14.703125 19.421875 -13.796875 C 20.566406 -12.898438 22.148438 -12.453125 24.171875 -12.453125 C 27.546875 -12.453125 29.234375 -13.082031 29.234375 -14.34375 C 29.234375 -15.15625 28.625 -15.769531 27.40625 -16.1875 C 26.195312 -16.613281 23.910156 -17.054688 20.546875 -17.515625 C 8.960938 -19.035156 3.171875 -23.972656 3.171875 -32.328125 Z M 3.171875 -32.328125 "/></g></g></g><g fill="#5e17eb" fill-opacity="1"><g transform="translate(263.797381, 228.615249)"><g><path d="M 3.84375 -47.140625 L 43.296875 -47.140625 C 43.796875 -47.140625 44.222656 -46.957031 44.578125 -46.59375 C 44.941406 -46.238281 45.125 -45.816406 45.125 -45.328125 L 45.125 -34.484375 C 45.125 -33.984375 44.941406 -33.550781 44.578125 -33.1875 C 44.222656 -32.832031 43.796875 -32.65625 43.296875 -32.65625 L 32.125 -32.65625 L 32.125 -1.8125 C 32.125 -1.320312 31.941406 -0.894531 31.578125 -0.53125 C 31.222656 -0.175781 30.796875 0 30.296875 0 L 16.828125 0 C 16.335938 0 15.910156 -0.175781 15.546875 -0.53125 C 15.191406 -0.894531 15.015625 -1.320312 15.015625 -1.8125 L 15.015625 -32.65625 L 3.84375 -32.65625 C 3.34375 -32.65625 2.910156 -32.832031 2.546875 -33.1875 C 2.191406 -33.550781 2.015625 -33.984375 2.015625 -34.484375 L 2.015625 -45.328125 C 2.015625 -45.816406 2.191406 -46.238281 2.546875 -46.59375 C 2.910156 -46.957031 3.34375 -47.140625 3.84375 -47.140625 Z M 3.84375 -47.140625 "/></g></g></g><g fill="#ffffff" fill-opacity="1"><g transform="translate(65.624731, 224.383243)"><g><path d="M 9.1875 -42.828125 C 13.300781 -46.148438 18.742188 -47.8125 25.515625 -47.8125 C 32.296875 -47.8125 37.738281 -46.140625 41.84375 -42.796875 C 45.957031 -39.453125 48.015625 -34.75 48.015625 -28.6875 L 48.015625 -18.1875 C 48.015625 -12.882812 46.421875 -8.59375 43.234375 -5.3125 L 48.484375 2.296875 C 48.617188 2.554688 48.6875 2.832031 48.6875 3.125 C 48.6875 3.414062 48.5625 3.695312 48.3125 3.96875 C 48.070312 4.238281 47.75 4.375 47.34375 4.375 L 34.140625 4.375 C 33.015625 4.375 32.070312 3.859375 31.3125 2.828125 L 29.421875 0.46875 C 28.117188 0.601562 26.816406 0.671875 25.515625 0.671875 C 18.648438 0.671875 13.1875 -0.929688 9.125 -4.140625 C 5.0625 -7.347656 3.03125 -12.03125 3.03125 -18.1875 L 3.03125 -28.6875 C 3.03125 -34.789062 5.082031 -39.503906 9.1875 -42.828125 Z M 21.890625 -13.796875 C 22.785156 -12.898438 23.992188 -12.453125 25.515625 -12.453125 C 27.046875 -12.453125 28.257812 -12.898438 29.15625 -13.796875 C 30.050781 -14.703125 30.5 -16.070312 30.5 -17.90625 L 30.5 -29.234375 C 30.5 -31.023438 30.050781 -32.378906 29.15625 -33.296875 C 28.257812 -34.222656 27.046875 -34.6875 25.515625 -34.6875 C 23.992188 -34.6875 22.785156 -34.222656 21.890625 -33.296875 C 20.992188 -32.378906 20.546875 -31.023438 20.546875 -29.234375 L 20.546875 -17.90625 C 20.546875 -16.070312 20.992188 -14.703125 21.890625 -13.796875 Z M 21.890625 -13.796875 "/></g></g></g><g fill="#ffffff" fill-opacity="1"><g transform="translate(117.406084, 224.383243)"><g><path d="M 32.328125 -47.140625 L 45.53125 -47.140625 C 46.019531 -47.140625 46.441406 -46.957031 46.796875 -46.59375 C 47.160156 -46.238281 47.34375 -45.816406 47.34375 -45.328125 L 47.34375 -18.25 C 47.34375 -11.96875 45.390625 -7.242188 41.484375 -4.078125 C 37.578125 -0.910156 32.265625 0.671875 25.546875 0.671875 C 18.835938 0.671875 13.519531 -0.894531 9.59375 -4.03125 C 5.664062 -7.175781 3.703125 -11.914062 3.703125 -18.25 L 3.703125 -45.328125 C 3.703125 -45.816406 3.878906 -46.238281 4.234375 -46.59375 C 4.597656 -46.957031 5.023438 -47.140625 5.515625 -47.140625 L 18.71875 -47.140625 C 19.21875 -47.140625 19.644531 -46.957031 20 -46.59375 C 20.363281 -46.238281 20.546875 -45.816406 20.546875 -45.328125 L 20.546875 -18.046875 C 20.546875 -14.585938 22.203125 -12.859375 25.515625 -12.859375 C 28.835938 -12.859375 30.5 -14.585938 30.5 -18.046875 L 30.5 -45.328125 C 30.5 -45.816406 30.675781 -46.238281 31.03125 -46.59375 C 31.394531 -46.957031 31.828125 -47.140625 32.328125 -47.140625 Z M 32.328125 -47.140625 "/></g></g></g><g fill="#ffffff" fill-opacity="1"><g transform="translate(168.446741, 224.383243)"><g><path d="M 20.546875 -13.125 L 41.28125 -13.125 C 41.769531 -13.125 42.191406 -12.941406 42.546875 -12.578125 C 42.910156 -12.222656 43.09375 -11.800781 43.09375 -11.3125 L 43.09375 -1.8125 C 43.09375 -1.320312 42.910156 -0.894531 42.546875 -0.53125 C 42.191406 -0.175781 41.769531 0 41.28125 0 L 6.203125 0 C 5.703125 0 5.269531 -0.175781 4.90625 -0.53125 C 4.550781 -0.894531 4.375 -1.320312 4.375 -1.8125 L 4.375 -45.328125 C 4.375 -45.816406 4.550781 -46.238281 4.90625 -46.59375 C 5.269531 -46.957031 5.703125 -47.140625 6.203125 -47.140625 L 40.75 -47.140625 C 41.238281 -47.140625 41.660156 -46.957031 42.015625 -46.59375 C 42.378906 -46.238281 42.5625 -45.816406 42.5625 -45.328125 L 42.5625 -35.828125 C 42.5625 -35.335938 42.378906 -34.910156 42.015625 -34.546875 C 41.660156 -34.191406 41.238281 -34.015625 40.75 -34.015625 L 20.546875 -34.015625 L 20.546875 -29.765625 L 39.265625 -29.765625 C 39.753906 -29.765625 40.175781 -29.582031 40.53125 -29.21875 C 40.894531 -28.863281 41.078125 -28.441406 41.078125 -27.953125 L 41.078125 -19.1875 C 41.078125 -18.695312 40.894531 -18.269531 40.53125 -17.90625 C 40.175781 -17.550781 39.753906 -17.375 39.265625 -17.375 L 20.546875 -17.375 Z M 20.546875 -13.125 "/></g></g></g><g fill="#ffffff" fill-opacity="1"><g transform="translate(215.245235, 224.383243)"><g><path d="M 3.171875 -32.328125 C 3.171875 -36.898438 5.066406 -40.625 8.859375 -43.5 C 12.648438 -46.375 17.628906 -47.8125 23.796875 -47.8125 C 29.972656 -47.8125 35.023438 -46.304688 38.953125 -43.296875 C 42.878906 -40.296875 44.84375 -37.15625 44.84375 -33.875 C 44.84375 -33.46875 44.695312 -33.117188 44.40625 -32.828125 C 44.113281 -32.535156 43.789062 -32.390625 43.4375 -32.390625 L 29.96875 -32.390625 C 28.9375 -32.390625 27.992188 -32.769531 27.140625 -33.53125 C 26.285156 -34.300781 25.140625 -34.6875 23.703125 -34.6875 C 21.546875 -34.6875 20.46875 -34.054688 20.46875 -32.796875 C 20.46875 -32.117188 20.992188 -31.554688 22.046875 -31.109375 C 23.109375 -30.660156 25.078125 -30.257812 27.953125 -29.90625 C 34.640625 -29.050781 39.40625 -27.488281 42.25 -25.21875 C 45.101562 -22.945312 46.53125 -19.507812 46.53125 -14.90625 C 46.53125 -10.3125 44.429688 -6.566406 40.234375 -3.671875 C 36.035156 -0.773438 30.546875 0.671875 23.765625 0.671875 C 16.992188 0.671875 11.675781 -0.71875 7.8125 -3.5 C 3.945312 -6.28125 2.015625 -9.671875 2.015625 -13.671875 C 2.015625 -14.078125 2.160156 -14.425781 2.453125 -14.71875 C 2.742188 -15.007812 3.09375 -15.15625 3.5 -15.15625 L 16.296875 -15.15625 C 17.242188 -15.15625 18.285156 -14.703125 19.421875 -13.796875 C 20.566406 -12.898438 22.148438 -12.453125 24.171875 -12.453125 C 27.546875 -12.453125 29.234375 -13.082031 29.234375 -14.34375 C 29.234375 -15.15625 28.625 -15.769531 27.40625 -16.1875 C 26.195312 -16.613281 23.910156 -17.054688 20.546875 -17.515625 C 8.960938 -19.035156 3.171875 -23.972656 3.171875 -32.328125 Z M 3.171875 -32.328125 "/></g></g></g><g fill="#ffffff" fill-opacity="1"><g transform="translate(263.794456, 224.383243)"><g><path d="M 3.84375 -47.140625 L 43.296875 -47.140625 C 43.796875 -47.140625 44.222656 -46.957031 44.578125 -46.59375 C 44.941406 -46.238281 45.125 -45.816406 45.125 -45.328125 L 45.125 -34.484375 C 45.125 -33.984375 44.941406 -33.550781 44.578125 -33.1875 C 44.222656 -32.832031 43.796875 -32.65625 43.296875 -32.65625 L 32.125 -32.65625 L 32.125 -1.8125 C 32.125 -1.320312 31.941406 -0.894531 31.578125 -0.53125 C 31.222656 -0.175781 30.796875 0 30.296875 0 L 16.828125 0 C 16.335938 0 15.910156 -0.175781 15.546875 -0.53125 C 15.191406 -0.894531 15.015625 -1.320312 15.015625 -1.8125 L 15.015625 -32.65625 L 3.84375 -32.65625 C 3.34375 -32.65625 2.910156 -32.832031 2.546875 -33.1875 C 2.191406 -33.550781 2.015625 -33.984375 2.015625 -34.484375 L 2.015625 -45.328125 C 2.015625 -45.816406 2.191406 -46.238281 2.546875 -46.59375 C 2.910156 -46.957031 3.34375 -47.140625 3.84375 -47.140625 Z M 3.84375 -47.140625 "/></g></g></g></svg>